HIERARCHY
ROOT SpineBase
{
  OFFSET 0.000000 0.000000 0.000000
  CHANNELS 6 Xposition Yposition Zposition Zrotation Xrotation Yrotation
  JOINT SpineMid
  {
    OFFSET -0.000000 28.293437 0.000000
    CHANNELS 3 Zrotation Xrotation Yrotation
    JOINT SpineShoulder
    {
      OFFSET -0.119634 21.013768 -0.728819
      CHANNELS 3 Zrotation Xrotation Yrotation
      JOINT Neck
      {
        OFFSET -0.069353 6.953533 -0.545232
        CHANNELS 3 Zrotation Xrotation Yrotation
        JOINT Head
        {
          OFFSET -2.113173 11.681872 -0.242308
          CHANNELS 3 Zrotation Xrotation Yrotation
          End Site
          {
            OFFSET 0 0 0
          }
        }
      }
      JOINT ShoulderLeft
      {
        OFFSET -16.415932 -1.160743 3.452298
        CHANNELS 3 Zrotation Xrotation Yrotation
        JOINT ElbowLeft
        {
          OFFSET -3.878689 -27.717879 1.193694
          CHANNELS 3 Zrotation Xrotation Yrotation
          JOINT WristLeft
          {
            OFFSET -3.413291 -20.496325 -3.317658
            CHANNELS 3 Zrotation Xrotation Yrotation
            JOINT HandLeft
            {
              OFFSET 0.946728 -6.561771 -2.787102
              CHANNELS 3 Zrotation Xrotation Yrotation
              JOINT HandTipLeft
              {
                OFFSET 0.319867 -6.809260 -0.223709
                CHANNELS 3 Zrotation Xrotation Yrotation
                End Site
                {
                  OFFSET 0 0 0
                }
              }
              JOINT ThumbLeft
              {
                OFFSET -2.712416 -0.251973 -0.676510
                CHANNELS 3 Zrotation Xrotation Yrotation
                End Site
                {
                  OFFSET 0 0 0
                }
              }
            }
          }
        }
      }
      JOINT ShoulderRight
      {
        OFFSET 15.976582 -1.303210 -4.061339
        CHANNELS 3 Zrotation Xrotation Yrotation
        JOINT ElbowRight
        {
          OFFSET 6.044308 -27.245613 -1.917603
          CHANNELS 3 Zrotation Xrotation Yrotation
          JOINT WristRight
          {
            OFFSET 2.702722 -20.385449 -4.644082
            CHANNELS 3 Zrotation Xrotation Yrotation
            JOINT HandRight
            {
              OFFSET -1.839065 -6.436091 -2.672361
              CHANNELS 3 Zrotation Xrotation Yrotation
              JOINT HandTipRight
              {
                OFFSET 0.325099 -5.508034 -2.273251
                CHANNELS 3 Zrotation Xrotation Yrotation
                End Site
                {
                  OFFSET 0 0 0
                }
              }
              JOINT ThumbRight
              {
                OFFSET -3.142885 -0.264465 -0.840084
                CHANNELS 3 Zrotation Xrotation Yrotation
                End Site
                {
                  OFFSET 0 0 0
                }
              }
            }
          }
        }
      }
    }
  }
  JOINT HipLeft
  {
    OFFSET -6.037212 0.581383 -2.186190
    CHANNELS 3 Zrotation Xrotation Yrotation
    JOINT KneeLeft
    {
      OFFSET -6.015377 -33.688404 -0.137722
      CHANNELS 3 Zrotation Xrotation Yrotation
      JOINT AnkleLeft
      {
        OFFSET 1.803036 -32.891639 6.528740
        CHANNELS 3 Zrotation Xrotation Yrotation
        JOINT FootLeft
        {
          OFFSET -2.123906 -3.545702 -12.969205
          CHANNELS 3 Zrotation Xrotation Yrotation
          End Site
          {
            OFFSET 0 0 0
          }
        }
      }
    }
  }
  JOINT HipRight
  {
    OFFSET 5.386953 0.872335 -4.476745
    CHANNELS 3 Zrotation Xrotation Yrotation
    JOINT KneeRight
    {
      OFFSET 4.536330 -26.606629 1.228993
      CHANNELS 3 Zrotation Xrotation Yrotation
      JOINT AnkleRight
      {
        OFFSET 0.128675 -37.976248 9.315281
        CHANNELS 3 Zrotation Xrotation Yrotation
        JOINT FootRight
        {
          OFFSET -3.052691 -5.650423 -8.539349
          CHANNELS 3 Zrotation Xrotation Yrotation
          End Site
          {
            OFFSET 0 0 0
          }
        }
      }
    }
  }
}
MOTION
Frames: 12
Frame Time: 0.033333
36.036458 75.424913 366.014103 0.000000 0.000000 11.337524 -0.000000 -0.000000 -11.337524 -0.000000 0.000000 0.000000 -0.000000 0.000000 0.000000 0.000000 0.000000 0.000000 -0.000000 0.000000 0.000000 -0.000000 0.000000 0.000000 -0.000000 0.000000 0.000000 -0.000000 0.000000 0.000000 0.000000 0.000000 0.000000 0.000000 0.000000 0.000000 -0.000000 0.000000 0.000000 -0.000000 0.000000 0.000000 -0.000000 0.000000 0.000000 -0.000000 0.000000 0.000000 0.000000 0.000000 0.000000 0.000000 0.000000 0.000000 -0.000000 -0.000000 -11.337524 -0.000000 0.000000 0.000000 -0.000000 0.000000 0.000000 0.000000 0.000000 0.000000 -0.000000 -0.000000 -11.337524 -0.000000 0.000000 0.000000 -0.000000 0.000000 0.000000 0.000000 0.000000 0.000000
36.028946 75.420364 365.984518 -0.019944 0.046606 11.226035 0.010489 -0.049597 -11.226022 -0.000000 0.000000 0.000000 -0.000000 0.000000 0.000000 0.000000 0.000000 0.000000 -0.000000 0.000000 0.000000 -0.000000 0.000000 0.000000 -0.000000 0.000000 0.000000 -0.256175 1.988644 0.106240 0.000000 0.000000 0.000000 0.000000 0.000000 0.000000 -0.000000 0.000000 0.000000 -0.000000 0.000000 0.000000 0.923000 -0.949440 -0.104905 -0.804612 -0.782161 -0.031163 0.000000 0.000000 0.000000 0.000000 0.000000 0.000000 0.010489 -0.049597 -11.226022 -0.000000 0.000000 0.000000 -0.000000 0.000000 0.000000 0.000000 0.000000 0.000000 0.010489 -0.049597 -11.226022 -0.000000 0.000000 0.000000 1.598637 -5.511727 0.696811 0.000000 0.000000 0.000000
36.025078 75.416420 365.956143 -0.031759 0.089562 11.136170 0.013862 -0.094010 -11.136134 -0.000000 0.000000 0.000000 -0.000000 0.000000 0.000000 0.000000 0.000000 0.000000 -0.000000 0.000000 0.000000 -0.000000 0.000000 0.000000 1.261950 0.419069 -0.478678 -1.962105 3.501928 0.695110 0.000000 0.000000 0.000000 0.000000 0.000000 0.000000 -0.000000 0.000000 0.000000 -0.772534 0.917753 0.303580 2.415773 -2.760868 -0.404244 -1.464372 -1.292621 -0.072658 0.000000 0.000000 0.000000 0.000000 0.000000 0.000000 0.013862 -0.094010 -11.136134 -0.000000 0.000000 0.000000 -0.000000 0.000000 0.000000 0.000000 0.000000 0.000000 -0.966389 -0.969198 -11.360707 1.504977 1.467114 0.370053 2.135718 -9.657790 0.857257 0.000000 0.000000 0.000000
36.024853 75.413080 365.928979 -0.035453 0.128877 11.068198 0.010052 -0.133286 -11.068146 -0.000000 0.000000 0.000000 -0.000000 0.000000 0.000000 0.000000 0.000000 0.000000 -0.000000 0.000000 0.000000 -0.000000 0.000000 0.000000 1.640411 0.656390 -0.608758 -2.942758 5.170003 0.957179 0.000000 0.000000 0.000000 0.000000 0.000000 0.000000 -0.000000 0.000000 0.000000 -1.023646 1.242629 0.408536 3.205869 -3.910588 -0.448961 -1.989196 -1.483631 -0.124845 0.000000 0.000000 0.000000 0.000000 0.000000 0.000000 0.010052 -0.133286 -11.068146 -0.000000 0.000000 0.000000 -0.000000 0.000000 0.000000 0.000000 0.000000 0.000000 -1.364297 -1.416467 -11.397698 2.027396 2.111488 0.498477 2.705571 -11.453941 0.598329 0.000000 0.000000 0.000000
36.028270 75.410345 365.903025 -0.031033 0.164558 11.022329 -0.001002 -0.167455 -11.022286 -0.000000 0.000000 0.000000 -0.000000 0.000000 0.000000 0.000000 0.000000 0.000000 -0.000000 0.000000 0.000000 -0.000000 0.000000 0.000000 1.830052 0.917103 -0.655955 -3.899000 6.798435 1.162816 0.000000 0.000000 0.000000 0.000000 0.000000 0.000000 -0.000000 0.000000 0.000000 -1.184111 1.479078 0.480403 3.727265 -4.906945 -0.406228 -2.385838 -1.317478 -0.188008 0.000000 0.000000 0.000000 0.000000 0.000000 0.000000 -0.896147 -0.016659 -11.015893 1.467809 0.754981 0.139663 -0.562172 -0.730558 -0.155065 0.000000 0.000000 0.000000 -1.706526 -1.836177 -11.450103 2.398472 2.694207 0.594876 2.832232 -11.011852 -0.253597 0.000000 0.000000 0.000000
36.035330 75.408214 365.878282 -0.018501 0.196611 10.998723 -0.019350 -0.196529 -10.998724 -0.000000 0.000000 0.000000 -0.000000 0.000000 0.000000 0.000000 0.000000 0.000000 -0.000000 0.000000 0.000000 -0.598085 0.573839 0.004235 2.410213 0.630968 -0.591139 -4.812116 8.398808 1.311231 0.000000 0.000000 0.000000 0.000000 0.000000 0.000000 -0.000000 0.000000 0.000000 -1.253678 1.627576 0.518296 3.984766 -5.751820 -0.285009 -2.657343 -0.767532 -0.262423 0.000000 0.000000 0.000000 0.000000 0.000000 0.000000 -1.067165 -0.035301 -10.989093 1.680895 0.821505 0.149466 -0.623651 -0.778385 -0.170518 0.000000 0.000000 0.000000 -1.994797 -2.226932 -11.517001 2.618510 3.214084 0.662582 2.568207 -8.375073 -1.654975 0.000000 0.000000 0.000000
36.052066 75.393265 365.848808 0.019222 0.226208 10.977130 -0.061945 -0.218408 -10.977286 -0.000000 0.000000 0.000000 -0.000000 0.000000 0.000000 0.000000 0.000000 0.000000 -0.000000 0.000000 0.000000 -0.000000 0.000000 0.000000 1.449369 2.247040 -0.316617 -5.293249 9.087552 1.150092 0.000000 0.000000 0.000000 0.000000 0.000000 0.000000 -0.000000 0.000000 0.000000 -1.405513 1.823270 0.583158 4.624922 -7.311329 -0.073425 -3.742619 1.173759 -0.078175 0.000000 0.000000 0.000000 0.000000 0.000000 0.000000 -1.221187 -0.085100 -10.959583 1.773494 0.884369 0.137924 -0.612021 -0.793367 -0.169028 0.000000 0.000000 0.000000 -2.394991 -2.797672 -11.630305 2.658596 3.883502 0.715414 1.772401 2.850520 -6.095078 0.000000 0.000000 0.000000
36.078128 75.393540 365.821303 0.065496 0.252045 11.004024 -0.112403 -0.234909 -11.004399 -0.000000 0.000000 0.000000 -0.000000 0.000000 0.000000 0.000000 0.000000 0.000000 -0.000000 0.000000 0.000000 -0.000000 0.000000 0.000000 0.635923 2.277999 0.045537 -6.137157 11.546535 1.209127 0.000000 0.000000 0.000000 0.000000 0.000000 0.000000 -0.000000 0.000000 0.000000 -1.128636 1.631857 0.488619 3.756071 -6.897765 0.140420 -3.067522 2.789231 -0.222234 0.000000 0.000000 0.000000 0.000000 0.000000 0.000000 -1.413277 -0.116398 -10.979555 1.915846 0.929131 0.130128 -0.618081 -0.796307 -0.170448 0.000000 0.000000 0.000000 -2.531715 -2.962821 -11.693969 2.561363 4.061034 0.712296 1.375536 8.528633 -7.734366 0.000000 0.000000 0.000000
36.089448 75.396450 365.807410 0.093306 0.270090 11.062579 -0.143398 -0.247167 -11.063108 -0.000000 0.000000 0.000000 -0.000000 0.000000 0.000000 0.000000 0.000000 0.000000 -0.000000 0.000000 0.000000 -0.000000 0.000000 0.000000 0.049667 1.574129 0.204146 -6.541514 14.164377 1.468776 0.000000 0.000000 0.000000 0.000000 0.000000 0.000000 -0.000000 0.000000 0.000000 -0.909087 1.522493 0.420220 3.476107 -7.942644 0.588778 -3.240334 6.770176 -0.234567 0.000000 0.000000 0.000000 0.000000 0.000000 0.000000 -1.453746 -0.125330 -11.038516 1.890799 0.747406 0.114430 -0.582628 -0.614953 -0.152366 0.000000 0.000000 0.000000 -2.558000 -3.138542 -11.782188 2.292712 4.336287 0.694256 1.206348 13.233704 -9.008657 0.000000 0.000000 0.000000
36.096593 75.401370 365.799028 0.108894 0.289236 11.114168 -0.162608 -0.262819 -11.114816 -0.000000 0.000000 0.000000 -0.000000 0.000000 0.000000 0.000000 0.000000 0.000000 -0.000000 0.000000 0.000000 -0.000000 0.000000 0.000000 -0.674996 2.115596 0.600239 -7.853800 14.665379 1.439840 0.000000 0.000000 0.000000 0.000000 0.000000 0.000000 -0.000000 0.000000 0.000000 -0.683565 1.361556 0.343715 2.929858 -7.985056 0.830442 -3.346954 7.730386 -0.152434 0.000000 0.000000 0.000000 0.000000 0.000000 0.000000 -1.512697 -0.162214 -11.085542 1.344243 0.160789 -0.036168 -0.000000 0.000000 0.000000 0.000000 0.000000 0.000000 -2.622207 -3.326831 -11.870631 2.106312 4.533737 0.687576 1.892639 17.870874 -11.310572 0.000000 0.000000 0.000000
36.110747 75.406867 365.794866 0.125797 0.309382 11.166269 -0.183331 -0.279163 -11.167055 -0.000000 0.000000 0.000000 -0.000000 0.000000 0.000000 0.000000 0.000000 0.000000 -0.000000 0.000000 0.000000 -0.000000 0.000000 0.000000 -1.446094 2.832116 1.049568 -8.356724 14.730978 1.199916 0.000000 0.000000 0.000000 0.000000 0.000000 0.000000 -0.000000 0.000000 0.000000 -0.528194 1.212302 0.286138 2.413341 -7.548797 0.914954 -2.539289 5.569416 -0.616899 0.000000 0.000000 0.000000 0.000000 0.000000 0.000000 -1.589763 -0.211363 -11.130698 1.393068 0.204891 -0.044869 -0.000000 0.000000 0.000000 0.000000 0.000000 0.000000 -2.376219 -2.907933 -11.816904 1.610606 3.020426 0.546378 0.210712 19.706051 -8.787886 0.000000 0.000000 0.000000
36.098953 75.417285 365.800287 0.103833 0.310832 11.217591 -0.162319 -0.284694 -11.218276 -0.000000 0.000000 0.000000 -0.000000 0.000000 0.000000 0.000000 0.000000 0.000000 -0.000000 0.000000 0.000000 -0.000000 0.000000 0.000000 -1.295350 4.171410 1.183098 -10.271234 13.966941 1.144518 0.000000 0.000000 0.000000 0.000000 0.000000 0.000000 -0.000000 0.000000 0.000000 -0.431596 1.084505 0.245790 2.249689 -7.369999 0.957997 -2.420447 4.796602 -0.713276 0.000000 0.000000 0.000000 0.000000 0.000000 0.000000 -1.514201 -0.265206 -11.175864 1.330029 0.242806 -0.051718 -0.000000 0.000000 0.000000 0.000000 0.000000 0.000000 -2.301972 -2.601907 -11.807658 1.622225 2.704515 0.497175 -1.109322 15.313783 -5.372839 0.000000 0.000000 0.000000
